<svg width="22" height="12" viewBox="0 0 22 12" fill="none" xmlns="http://www.w3.org/2000/svg">
<path d="M7.59343 7.90936C7.59311 7.32236 7.11692 6.84336 6.52685 6.84336C5.93956 6.84336 5.46028 7.31966 5.46028 7.90996C5.46028 8.49726 5.93659 8.97656 6.52685 8.97656C7.11584 8.97656 7.5959 8.49836 7.59343 7.90936ZM7.59343 7.90936C7.59343 7.90916 7.59343 7.90956 7.59343 7.90936ZM7.59343 7.90936L7.34343 7.90996M16.5376 7.90936C16.5372 7.32236 16.0611 6.84336 15.471 6.84336C14.8837 6.84336 14.4044 7.31966 14.4044 7.90996C14.4044 8.49726 14.8807 8.97656 15.471 8.97656C16.06 8.97656 16.54 8.49836 16.5376 7.90936ZM16.5376 7.90936C16.5376 7.90956 16.5376 7.90916 16.5376 7.90936ZM16.5376 7.90936L16.2876 7.90996M4.97862 0.826154C4.9566 0.788494 4.91024 0.776454 4.87296 0.798114C4.83515 0.820084 4.8234 0.867154 4.84509 0.904494L6.46128 3.70419L6.58968 3.92662L6.36387 4.04896C3.72815 5.47716 1.91659 8.11056 1.53687 11.2126H20.4631C20.0834 8.11066 18.2718 5.47726 15.634 4.04906L15.4081 3.92669L15.5366 3.70419L17.1531 0.903884C17.1737 0.868484 17.1627 0.820364 17.1236 0.797364C17.0885 0.776664 17.0423 0.789264 17.0225 0.824134L17.0216 0.825744L15.3842 3.66149L15.2706 3.8583L15.0638 3.76389C13.8475 3.20837 12.4767 2.89779 11 2.89779C9.52324 2.89779 8.15249 3.20837 6.93613 3.76389L6.72941 3.8583L6.61578 3.66149L4.97862 0.826154ZM4.97862 0.826154C4.97865 0.826214 4.97859 0.826084 4.97862 0.826154Z" stroke="#001271"/>
</svg>
