<?xml version="1.0" encoding="UTF-8"?>
<svg version="1.1" xmlns="http://www.w3.org/2000/svg" width="512" height="512">
    <path d="M0 0 C1.183285 -0.00445784 2.36657001 -0.00891569 3.58571213 -0.01350862 C4.88695316 -0.01332426 6.18819419 -0.01313989 7.52886677 -0.01294994 C8.92421312 -0.01624972 10.31955852 -0.01997553 11.7149027 -0.02409142 C15.55362475 -0.03410645 19.39233117 -0.03782741 23.23106444 -0.04048073 C27.36958933 -0.04438522 31.50810185 -0.05396341 35.64661884 -0.0626936 C45.64285368 -0.08245315 55.63908951 -0.09252323 65.63533899 -0.10142139 C70.34270082 -0.10580482 75.05006151 -0.11117146 79.75742245 -0.11641026 C95.40534926 -0.13342146 111.05327538 -0.14791595 126.70121002 -0.155159 C130.76162625 -0.15706889 134.82204248 -0.15898922 138.88245869 -0.16094494 C139.89165429 -0.16142868 140.9008499 -0.16191242 141.94062719 -0.16241082 C158.2914065 -0.17071234 174.64211267 -0.1960518 190.99286004 -0.22852562 C207.77936582 -0.26159314 224.56583442 -0.27960745 241.35237294 -0.28280324 C250.77760561 -0.28496854 260.20273162 -0.2937202 269.62793255 -0.31926441 C277.65424371 -0.34096715 285.6804223 -0.3490239 293.70675948 -0.33929763 C297.80106965 -0.33475178 301.89510625 -0.33665557 305.98937893 -0.35605907 C309.74065363 -0.37368334 313.49145503 -0.37269935 317.24273471 -0.35716178 C319.23614134 -0.35366199 321.2295529 -0.36981747 323.22289056 -0.38676625 C331.49416261 -0.32743875 338.11160413 0.66859665 344.57850361 6.09906483 C345.10573017 6.75004139 345.63295673 7.40101795 346.17615986 8.07172108 C346.99407001 9.04431873 346.99407001 9.04431873 347.82850361 10.03656483 C350.50403864 14.01651584 351.48987781 17.51867632 351.46571064 22.29169178 C351.46555958 23.29235172 351.46540852 24.29301167 351.46525288 25.32399464 C351.45493031 26.39187717 351.44460773 27.45975971 351.43397236 28.56000233 C351.42972752 30.21409359 351.42972752 30.21409359 351.42539692 31.90160084 C351.41421967 35.41675221 351.38911923 38.93164696 351.36365986 42.44672108 C351.3536269 44.8327851 351.3445016 47.21885313 351.33631611 49.6049242 C351.31428835 55.44811043 351.280835 61.29114741 351.23865986 67.13422108 C352.09097187 67.11851063 352.94328388 67.10280018 353.82142353 67.08661366 C356.99897212 67.03533146 360.17630899 66.99779625 363.35413837 66.96942616 C364.72660503 66.95438675 366.099024 66.93394975 367.47132587 66.90790272 C369.44954642 66.87130887 371.42812499 66.8560541 373.40662861 66.84125233 C374.59538593 66.82554188 375.78414326 66.80983143 377.00892353 66.79364491 C380.55126455 67.16718529 382.41030196 68.00995135 385.23865986 70.13422108 C386.12147236 72.00140858 386.12147236 72.00140858 386.36365986 74.00922108 C386.52221455 74.99535389 386.52221455 74.99535389 386.68397236 76.00140858 C386.23865986 78.13422108 386.23865986 78.13422108 381.23865986 83.13422108 C371.33865986 83.13422108 361.43865986 83.13422108 351.23865986 83.13422108 C351.23865986 114.81422108 351.23865986 146.49422108 351.23865986 179.13422108 C370.53454225 178.97631552 370.53454225 178.97631552 389.82996845 178.77386951 C392.26567093 178.76217688 394.70138127 178.75198642 397.13709736 178.74359608 C398.3814455 178.72313221 399.62579365 178.70266834 400.90784931 178.68158436 C410.82696154 178.67764429 419.26637305 180.43352722 426.70350361 187.36078358 C432.53027328 194.0919628 434.36605314 200.82266457 434.35891438 209.58192921 C434.36097637 211.53590878 434.36097637 211.53590878 434.36308002 213.52936268 C434.35954131 214.96576428 434.35590651 216.40216564 434.35218525 217.83856678 C434.35190307 219.35652636 434.35206172 220.87448607 434.35262775 222.39244556 C434.35291452 226.50773269 434.34703726 230.62299064 434.3400538 234.738271 C434.3338002 239.04108517 434.33321487 243.34390001 434.33202839 247.64671803 C434.328921 255.79223044 434.32071557 263.93772942 434.3106789 272.08323592 C434.2994994 281.35765966 434.29400268 290.63208405 434.28898346 299.90651286 C434.27853248 318.98242342 434.26074291 338.05832068 434.23865986 357.13422108 C440.17865986 357.13422108 446.11865986 357.13422108 452.23865986 357.13422108 C452.26146485 323.20510918 452.27916561 289.27599941 452.28972519 255.34688156 C452.29097592 251.34264511 452.29227024 247.33840867 452.2935915 243.33417225 C452.29385381 242.53698966 452.29411612 241.73980706 452.29438638 240.91846742 C452.29873952 228.0049563 452.30662512 215.09144961 452.31581265 202.17794112 C452.32515907 188.93078189 452.33071757 175.68362498 452.33274835 162.43646258 C452.33412152 154.26007648 452.33846101 146.08370294 452.34657633 137.9073207 C452.35247943 131.64119303 452.35311631 125.37507497 452.35176754 119.10894489 C452.35204333 116.53579029 452.35404136 113.96263523 452.35786533 111.38948345 C452.3628212 107.88358667 452.36165106 104.37774417 452.35891438 100.8718462 C452.36182722 99.84752721 452.36474006 98.82320822 452.36774117 97.76784927 C452.36575012 96.82782741 452.36375907 95.88780554 452.36170769 94.91929817 C452.36208741 94.11011415 452.36246713 93.30093012 452.36285836 92.46722537 C452.22861803 89.94559062 451.78926797 87.59578511 451.23865986 85.13422108 C447.05719012 83.96575179 442.98934812 83.98094744 438.67615986 83.95843983 C436.9756265 83.93525205 435.27510561 83.91113515 433.57459736 83.8861742 C430.90165945 83.85100397 428.22918434 83.82167365 425.55604267 83.80829334 C422.97051887 83.79282968 420.38633096 83.75264811 417.80115986 83.70843983 C416.60414448 83.71130245 416.60414448 83.71130245 415.38294697 83.71422291 C411.81883168 83.63560131 409.65792539 83.43962162 406.73865986 81.31317616 C404.50363232 78.06649308 404.63118582 75.98155662 405.23865986 72.13422108 C407.22666035 69.43146427 408.8091207 67.46804148 412.18119526 66.6806078 C414.5341942 66.50535807 416.83660251 66.49353465 419.19569111 66.54047108 C420.48838161 66.54041065 420.48838161 66.54041065 421.80718708 66.54034901 C423.62694828 66.54569867 425.44670931 66.56325791 427.26624775 66.59222889 C430.03187058 66.63393022 432.79504242 66.63330666 435.56092548 66.62640858 C437.33503074 66.63690796 439.10912356 66.64985008 440.88319111 66.66547108 C441.70116673 66.66567249 442.51914234 66.66587391 443.3619051 66.66608143 C450.99981055 66.82108115 457.60907237 68.66101102 463.23865986 74.13422108 C469.13517407 81.37850996 469.54137468 89.71063752 469.48157978 98.71527576 C469.48345547 99.64096646 469.48533115 100.56665716 469.48726368 101.52039909 C469.49092745 104.61571442 469.48011318 107.71080056 469.46912861 110.80609608 C469.46826737 113.0551753 469.46819365 115.30425494 469.46883869 117.55333424 C469.46767378 123.70697865 469.45316634 129.86052814 469.43589497 136.01414585 C469.42286382 141.19452125 469.41732346 146.37489496 469.41145611 151.55528259 C469.32832775 220.08256258 468.7752025 288.60927867 468.23865986 357.13422108 C469.34709248 357.12197498 470.45552509 357.10972889 471.59754658 357.0971117 C477.12804352 357.15347723 480.83254051 358.87339879 484.85584736 362.65375233 C489.70756089 368.94453343 489.18001336 376.58796107 488.23865986 384.13422108 C485.66959105 394.15123248 479.91012136 402.19072102 471.36365986 408.00922108 C462.85621125 412.67625167 454.69310705 413.55937912 445.11365986 413.32172108 C444.06178486 413.30818592 443.00990986 413.29465076 441.92615986 413.28070545 C439.36310032 413.24575464 436.80117073 413.1966979 434.23865986 413.13422108 C434.25437031 413.84441395 434.27008076 414.55460682 434.28626728 415.28632069 C434.34917125 418.54803768 434.38782523 421.80962645 434.42615986 425.07172108 C434.45129658 426.18869373 434.4764333 427.30566639 434.50233173 428.4564867 C434.59508691 438.99965895 432.74851735 447.4049745 425.23865986 455.13422108 C419.28779412 459.81414343 413.05428004 462.37565773 405.42133808 462.40164661 C403.71415607 462.41444157 403.71415607 462.41444157 401.97248554 462.427495 C400.73806721 462.42658863 399.50364887 462.42568226 398.23182392 462.42474842 C396.92052509 462.43146564 395.60922626 462.43818287 394.25819111 462.44510365 C390.67119371 462.46272388 387.08429182 462.46745741 383.49725533 462.46873522 C381.25216977 462.47015992 379.00710826 462.4744356 376.76202869 462.47972965 C368.91796047 462.49821855 361.07396009 462.50640192 353.2298708 462.50482655 C345.93735877 462.50362626 338.64514324 462.52470913 331.35270619 462.55631387 C325.07645831 462.5825376 318.80030689 462.59319126 312.5240047 462.59191573 C308.78230176 462.59140777 305.04086235 462.59699774 301.29921436 462.61827183 C297.12029763 462.64138439 292.94203733 462.63209622 288.76307392 462.62006092 C287.53675251 462.63129993 286.3104311 462.64253895 285.04694843 462.65411854 C276.42886078 462.59121885 268.94338426 461.15291453 261.92615986 455.88422108 C253.54777144 447.31098642 251.98424852 438.15088486 252.06287861 426.43500233 C252.07963642 425.46949451 252.09639423 424.5039867 252.11365986 423.50922108 C252.1226833 422.50504139 252.13170673 421.5008617 252.14100361 420.46625233 C252.16428239 418.02197981 252.19697499 415.57823699 252.23865986 413.13422108 C251.32075074 413.13790825 250.40284163 413.14159542 249.45711708 413.14539433 C227.13198566 413.23369581 204.8068843 413.29990658 182.48161507 413.34146976 C171.68531559 413.36210318 160.88913261 413.39023872 150.09290791 413.43597889 C140.68393826 413.47582273 131.27505297 413.50164822 121.86600131 413.51057506 C116.88302143 413.51579395 111.90028292 413.52807651 106.91738033 413.5571413 C102.22818244 413.5842716 97.53932557 413.59267089 92.85005665 413.5866518 C91.12831425 413.58775311 89.40656056 413.59572124 87.68488598 413.61104298 C85.33465912 413.63093415 82.98572112 413.62616428 80.63546467 413.61523914 C79.32006608 413.61892632 78.00466749 413.62261349 76.64940834 413.62641239 C72.68617882 413.05449477 71.03231058 411.94901058 68.23865986 409.13422108 C67.57459736 407.13422108 67.57459736 407.13422108 67.61365986 405.13422108 C67.60076923 404.47422108 67.58787861 403.81422108 67.57459736 403.13422108 C68.62366687 399.97467054 70.48613938 398.92952823 73.23865986 397.13422108 C76.64940834 396.64202976 76.64940834 396.64202976 80.63546467 396.65320301 C81.37069266 396.64978531 82.10592066 396.64636761 82.86342829 396.64284635 C85.32199392 396.63626842 87.77946276 396.65824085 90.23792744 396.68011951 C92.00218906 396.68124802 93.76645255 396.68061408 95.53071308 396.67834949 C100.31761902 396.67720153 105.10412429 396.7007243 109.89093709 396.72864532 C114.89441254 396.75364511 119.8978971 396.75599986 124.90142536 396.76074696 C134.37511872 396.7731809 143.84862751 396.80600824 153.32223958 396.84614491 C164.10809765 396.89084954 174.89396453 396.91284638 185.67989218 396.93292665 C207.86625388 396.97474046 230.05243875 397.04590615 252.23865986 397.13422108 C252.23865986 389.21422108 252.23865986 381.29422108 252.23865986 373.13422108 C124.03365986 373.62922108 124.03365986 373.62922108 -6.76134014 374.13422108 C-6.76134014 380.95637953 -6.35950972 383.74872543 -2.76134014 389.13422108 C2.31056497 394.20612619 8.17116198 396.44525824 15.26543903 396.54962635 C15.98234409 396.54660511 16.69924915 396.54358387 17.43787861 396.54047108 C18.57408398 396.55672535 18.57408398 396.55672535 19.73324299 396.57330799 C22.94470683 396.61885861 26.1560812 396.63067907 29.36781025 396.64545155 C31.7247909 396.66114731 34.08109999 396.69412735 36.43787861 396.72797108 C37.16085636 396.72494984 37.88383411 396.7219286 38.62872028 396.7188158 C41.72036067 396.7649333 43.92598162 396.96501215 46.66761494 398.4486742 C49.18348547 401.14790811 49.17650916 403.52948065 49.23865986 407.13422108 C47.89303587 410.0817784 47.15311442 411.6769938 44.23865986 413.13422108 C41.60751374 413.2698761 39.00422807 413.34695867 36.37147236 413.37250233 C35.58150867 413.38057407 34.79154499 413.38864582 33.97764301 413.39696217 C32.2980694 413.41081349 30.61846752 413.42153094 28.93885517 413.42938709 C27.23987666 413.44082314 25.54093164 413.46113953 23.84217548 413.49091053 C10.53107395 413.72414146 -1.17814505 413.08821726 -11.79649639 404.04437733 C-19.86761684 396.19790038 -23.92680308 387.75407384 -24.26134014 376.44672108 C-24.0786146 370.40459661 -23.67556231 366.76948418 -19.76134014 362.13422108 C-14.57672242 357.55246589 -12.35726945 357.97821322 -4.76134014 357.13422108 C-5.09134014 338.98422108 -5.42134014 320.83422108 -5.76134014 302.13422108 C-9.72134014 300.64922108 -9.72134014 300.64922108 -13.76134014 299.13422108 C-18.86924726 296.0457191 -21.52967736 291.55976277 -23.76134014 286.13422108 C-24.43793248 282.36518225 -24.44232119 278.69105191 -24.40298748 274.86897755 C-24.411493 273.76578424 -24.41999852 272.66259094 -24.42876178 271.52596754 C-24.45096816 267.84565837 -24.4376126 264.16636632 -24.42418194 260.48602772 C-24.43259803 257.84082932 -24.44295208 255.19570165 -24.45559978 252.55052662 C-24.48163136 246.12137078 -24.48061514 239.69249512 -24.4695616 233.26330668 C-24.46098839 228.03570095 -24.46184558 222.80817602 -24.46935749 217.58056927 C-24.47041238 216.83532837 -24.47146727 216.09008747 -24.47255412 215.32226352 C-24.47472514 213.80810462 -24.47691192 212.29394574 -24.47911427 210.77978688 C-24.49852569 196.59468201 -24.48656402 182.40973404 -24.46432833 168.22464203 C-24.4460806 156.06654166 -24.45698019 143.90874503 -24.48863506 131.75067616 C-24.52543339 117.61639386 -24.54240681 103.48230119 -24.52922279 89.3479709 C-24.52788175 87.83921018 -24.52657277 86.33044943 -24.52529621 84.82168865 C-24.52466555 84.07944089 -24.52403488 83.33719313 -24.5233851 82.57245301 C-24.52036339 77.35468852 -24.53159359 72.13706762 -24.54854679 66.91933346 C-24.56891373 60.55532962 -24.56793874 54.19175418 -24.53991439 47.82777245 C-24.52618125 44.58371916 -24.52513604 41.34056348 -24.54386425 38.09651279 C-24.56255737 34.5724438 -24.54411881 31.05041591 -24.51651287 27.52644825 C-24.53057932 26.5111597 -24.54464577 25.49587115 -24.55913848 24.44981629 C-24.44371993 17.11700919 -22.39732825 11.86081191 -17.76134014 6.13422108 C-12.11217337 1.53748422 -7.24318346 0.01265868 0 0 Z M-7.76134014 20.13422108 C-8.69243508 22.92750589 -8.88812036 24.60228111 -8.89276791 27.48744488 C-8.89660905 28.3820838 -8.9004502 29.27672271 -8.90440774 30.1984719 C-8.90354126 31.18240554 -8.90267478 32.16633919 -8.90178204 33.180089 C-8.90475316 34.22451385 -8.90772428 35.2689387 -8.91078544 36.34501278 C-8.91949097 39.86183371 -8.92098225 43.37862068 -8.92247295 46.89545155 C-8.92709976 49.40991762 -8.93212424 51.92438299 -8.93751812 54.43884754 C-8.95065613 61.28176285 -8.95712616 68.12466694 -8.96152878 74.96759272 C-8.96429073 79.23931439 -8.96852797 83.5110338 -8.97303295 87.78275394 C-8.98522518 99.60727452 -8.99552495 111.43179328 -8.99890804 123.25632 C-8.99912761 124.01316531 -8.99934718 124.77001061 -8.99957339 125.54979063 C-8.99979167 126.30845572 -9.00000995 127.0671208 -9.00023484 127.84877574 C-9.00067831 129.38614424 -9.00112487 130.92351274 -9.00157452 132.46088123 C-9.00179595 133.22347056 -9.00201738 133.98605988 -9.00224552 134.77175798 C-9.00619469 147.13221523 -9.02365255 159.49261358 -9.04693404 171.85304807 C-9.07063759 184.53981877 -9.08310942 197.22655988 -9.08427596 209.91335309 C-9.08519322 217.03797147 -9.09095847 224.16251307 -9.10909557 231.28711033 C-9.12608976 237.98638697 -9.12775668 244.68549283 -9.11895657 251.38479328 C-9.11818348 253.84668715 -9.12256441 256.30858871 -9.13241482 258.77046299 C-9.14505327 262.12527987 -9.13930144 265.47957323 -9.12883282 268.83438587 C-9.13688922 269.81385807 -9.14494563 270.79333027 -9.15324616 271.80248344 C-9.11735856 276.70299656 -9.05429375 280.21468129 -5.76134014 284.13422108 C-2.63466065 286.21867407 -1.95889765 286.3838014 1.59023285 286.38031673 C2.48447187 286.38429883 3.37871088 286.38828093 4.30004805 286.39238369 C5.77522799 286.38364517 5.77522799 286.38364517 7.28020954 286.37473011 C8.84601323 286.37729338 8.84601323 286.37729338 10.44344932 286.37990844 C13.95818137 286.38321536 17.47272455 286.37217979 20.98743916 286.36127186 C23.50016494 286.360708 26.01289105 286.3610238 28.52561665 286.36215687 C33.9440392 286.36261302 39.36240041 286.3569225 44.78081036 286.34568119 C52.61494304 286.32943867 60.44905242 286.32421947 68.28320012 286.32170521 C80.99305732 286.31732614 93.70288886 286.30401131 106.41273212 286.28509998 C118.76038707 286.26674666 131.10803505 286.25258748 143.45570087 286.24408436 C144.59704443 286.24329619 144.59704443 286.24329619 145.76144543 286.24249209 C149.57857165 286.23988205 153.39569792 286.23735463 157.21282423 286.23486829 C188.88812158 286.2141292 220.56338674 286.17874942 252.23865986 286.13422108 C252.23865986 281.84422108 252.23865986 277.55422108 252.23865986 273.13422108 C250.37338579 273.13063855 250.37338579 273.13063855 248.47042942 273.12698364 C218.96516739 273.06964865 189.45998494 272.99693587 159.95481177 272.9052348 C156.32481877 272.89396636 152.69482538 272.88282795 149.06483173 272.87176991 C148.3421522 272.86956622 147.61947267 272.86736254 146.87489375 272.86509208 C135.16672781 272.82970032 123.45856194 272.80484681 111.75036231 272.78387406 C99.74052831 272.76212694 87.73076385 272.72908694 75.72098899 272.68551952 C68.97364832 272.66136761 62.22637696 272.64247173 55.47899342 272.63660717 C49.1326521 272.63058016 42.78650827 272.61066687 36.44023991 272.57994556 C34.10695101 272.571127 31.77363635 272.5674506 29.44033146 272.56921291 C26.26230145 272.57085586 23.08488053 272.55424989 19.90693378 272.53294849 C18.97697566 272.53779607 18.04701754 272.54264365 17.08887887 272.54763812 C13.6737517 272.50968589 10.88465742 272.37118971 7.66613865 271.19055367 C5.24390513 267.70124247 5.69001669 263.97433441 5.73072529 259.83417225 C5.72448533 258.87000731 5.71824536 257.90584238 5.71181631 256.91246033 C5.69580406 253.6671247 5.70852293 250.42253162 5.72108173 247.17718983 C5.71566429 244.85651681 5.70854376 242.53584723 5.6998415 240.21518421 C5.68156048 233.90122691 5.6886955 227.58753018 5.70135784 221.27356815 C5.71146074 214.67657469 5.70209972 208.07960405 5.69581318 201.48260975 C5.68726106 189.6921643 5.70051927 177.9018288 5.72085053 166.11140239 C5.73872216 155.41615022 5.73561823 144.72107168 5.71717548 134.02582264 C5.69578038 121.61260114 5.68779547 109.1994904 5.69962454 96.78625298 C5.70587176 90.2127773 5.70666135 83.63942131 5.69347858 77.06595325 C5.68195331 70.88698215 5.6898852 64.70834007 5.71305561 58.52940464 C5.71836047 56.25696199 5.7167988 53.98449181 5.70800495 51.71205997 C5.69713617 48.61908501 5.71070836 45.52717622 5.73072529 42.43426991 C5.7218024 41.52679099 5.71287951 40.61931208 5.70368624 39.6843338 C5.78009561 33.63219808 5.78009561 33.63219808 8.1328783 31.07719803 C10.53553148 30.00128084 12.2216525 29.74801654 14.85194111 29.73016834 C16.21355366 29.71114208 16.21355366 29.71114208 17.60267353 29.69173145 C19.06217426 29.69613491 19.06217426 29.69613491 20.55115986 29.70062733 C22.05996723 29.69276455 22.05996723 29.69276455 23.59925556 29.68474293 C25.7241648 29.6783246 27.84910957 29.67965726 29.97401142 29.68817616 C33.22693229 29.69669038 36.47809978 29.66791433 39.73084736 29.6361742 C41.795951 29.63456222 43.86105775 29.63513967 45.92615986 29.63812733 C46.89916035 29.62689335 47.87216084 29.61565937 48.87464619 29.60408497 C55.5854708 29.6734372 55.5854708 29.6734372 58.85194111 31.97772694 C60.75827226 34.94227325 60.81502433 36.67603427 60.23865986 40.13422108 C50.73719798 49.63568295 33.67057504 44.76111232 20.23865986 45.13422108 C20.23865986 115.09422108 20.23865986 185.05422108 20.23865986 257.13422108 C96.79865986 257.13422108 173.35865986 257.13422108 252.23865986 257.13422108 C252.56865986 240.30422108 252.89865986 223.47422108 253.23865986 206.13422108 C256.28395997 190.90772051 256.28395997 190.90772051 263.68006611 185.27484608 C277.180377 176.82457697 288.63399853 179.72104312 306.23865986 179.13422108 C306.23865986 134.91422108 306.23865986 90.69422108 306.23865986 45.13422108 C290.33162861 45.10843983 274.42459736 45.08265858 258.03553486 45.05609608 C247.98213698 45.03094162 237.92875847 45.00478366 227.87537861 44.97406483 C222.59591977 44.95799519 217.31646045 44.94212858 212.0369997 44.92670155 C211.04443525 44.92378564 211.04443525 44.92378564 210.03181899 44.92081082 C200.00848429 44.89170553 189.98517399 44.87440355 179.96180439 44.86322498 C168.33156728 44.85023552 156.7014606 44.8233402 145.07129693 44.77960801 C138.9107857 44.75693232 132.75043571 44.74131405 126.58987904 44.74233723 C120.79503934 44.74308023 115.0005569 44.72527445 109.20580959 44.69305325 C107.07570556 44.68451304 104.94556164 44.68283205 102.81544781 44.68841839 C99.91310734 44.69501783 97.01191714 44.67723517 94.10969257 44.65320301 C93.26144437 44.66096343 92.41319616 44.66872385 91.53924346 44.67671943 C87.89923107 44.62314569 85.69646641 44.46896563 82.71547031 42.28928471 C80.69250526 39.33723464 80.65428453 37.64047306 81.23865986 34.13422108 C82.69105244 31.97846699 82.69105244 31.97846699 85.23865986 30.13422108 C88.32226296 29.53568448 91.36747569 29.59481752 94.50037861 29.62628651 C95.44835819 29.62004654 96.39633778 29.61380658 97.37304401 29.60737753 C100.55766706 29.59139026 103.74153079 29.60407444 106.92615986 29.61664295 C109.20594957 29.6112244 111.48573578 29.60410325 113.76551533 29.59540272 C119.96378345 29.57713489 126.16178589 29.58425131 132.36005878 29.59691906 C138.83913114 29.60702875 145.31818038 29.59765904 151.79725361 29.5913744 C163.37629716 29.58362529 174.95521918 29.59607518 186.53424358 29.61641175 C197.03473403 29.63428303 207.5350476 29.631179 218.03553486 29.6127367 C230.22683965 29.59133483 242.41801846 29.58336029 254.60934162 29.59518576 C261.06378649 29.60142985 267.51810948 29.60223109 273.97254658 29.5890398 C280.03991067 29.57750633 286.10693994 29.58546154 292.17426777 29.60861683 C294.40436464 29.61391727 296.63448958 29.61236746 298.86457539 29.60356617 C301.9024143 29.59268009 304.93917163 29.60629075 307.97694111 29.62628651 C308.86526127 29.61736362 309.75358143 29.60844073 310.66882038 29.59924746 C314.42435616 29.64739369 316.58884877 29.71121584 319.78508091 31.79185581 C321.62853662 34.76248677 321.74556173 36.62886207 321.75764179 40.11999989 C321.77851101 41.95832638 321.77851101 41.95832638 321.79980183 43.83379078 C321.79508892 45.18881836 321.78999497 46.54384465 321.7845583 47.89886951 C321.79329382 49.32802423 321.80377954 50.75716917 321.81588459 52.18629932 C321.84376825 56.06411564 321.84714877 59.94161321 321.8461647 63.81951523 C321.8492918 67.87283389 321.87490573 71.92600856 321.89814472 75.97925282 C321.93872394 83.6537578 321.95904991 91.32817777 321.97211862 99.00277352 C321.98798218 107.74038215 322.02639506 116.47784597 322.0667119 125.21537066 C322.14913712 143.18827856 322.20241296 161.16116481 322.23865986 179.13422108 C326.52865986 179.13422108 330.81865986 179.13422108 335.23865986 179.13422108 C335.3543774 158.6199935 335.44361875 138.10584446 335.49772072 117.59135628 C335.52350832 108.06622492 335.55866944 98.54130001 335.61585712 89.01630116 C335.66567511 80.71482287 335.69794683 72.41349408 335.70910233 64.11187047 C335.71562385 59.7156678 335.73096251 55.31989283 335.76731014 50.92382717 C335.80124447 46.7861213 335.81171816 42.64901936 335.80419827 38.51118755 C335.80557398 36.99261283 335.8155223 35.47401795 335.83468723 33.95556355 C335.85958819 31.88089627 335.8535796 29.80850521 335.83993244 27.73378468 C335.84454141 26.57324731 335.84915037 25.41270994 335.853899 24.21700478 C335.39746913 21.03808635 335.39746913 21.03808635 333.5294733 18.26101017 C328.28771216 14.87336131 323.09615252 15.44961908 316.98437214 15.50603199 C315.60521492 15.50098663 314.22606425 15.49375788 312.84692866 15.48453385 C309.05760211 15.46558269 305.2689198 15.47786087 301.47960937 15.49525678 C297.39297647 15.50861258 293.30643895 15.49320021 289.21981525 15.48143482 C281.21462928 15.46304094 273.20968713 15.47158193 265.20450871 15.48952305 C258.70006742 15.50353899 252.1956924 15.50744402 245.69123745 15.50408077 C244.76609914 15.50360333 243.84096082 15.50312589 242.88778802 15.50263398 C241.00850059 15.50160767 239.12921319 15.50055231 237.2499258 15.49946821 C220.62689963 15.49089774 204.00399133 15.50758795 187.38099384 15.53729725 C171.24259713 15.56614015 155.1043702 15.57321644 138.96595478 15.55780506 C121.40016673 15.54105363 103.83445932 15.53699751 86.26866919 15.55451542 C84.39653497 15.55635985 82.52440074 15.55819458 80.6522665 15.56001949 C79.73109146 15.56093158 78.80991642 15.56184367 77.86082698 15.5627834 C71.36193485 15.56839503 64.86308202 15.56507584 58.36419201 15.55847454 C50.44752402 15.5507525 42.53102332 15.55745319 34.61438911 15.58264958 C30.57336852 15.59517046 26.53260871 15.60125999 22.4915781 15.59010792 C18.79484524 15.58009842 15.09863346 15.58845392 11.40196425 15.6116891 C9.42581435 15.61932608 7.44961894 15.60726313 5.47349495 15.59458536 C4.30516012 15.60563305 3.1368253 15.61668074 1.9330864 15.6280632 C0.92270292 15.62925468 -0.08768056 15.63044617 -1.12868172 15.63167375 C-4.49431083 16.27413762 -5.65953823 17.47911393 -7.76134014 20.13422108 Z M271.23865986 199.13422108 C267.47781258 204.92933396 267.82514235 211.70597846 267.88563251 218.36786366 C267.88239223 220.01561787 267.88239223 220.01561787 267.87908649 221.69666004 C267.87601011 224.06960872 267.87957394 226.44257347 267.88910007 228.81550503 C267.90286743 232.56829681 267.89638502 236.32056166 267.88425922 240.07335377 C267.85528453 250.06302001 267.85565113 260.05258652 267.87451208 270.04226559 C267.88801536 277.2498213 267.87896855 284.45700951 267.84841251 291.66453075 C267.84295867 294.1544892 267.84706944 296.64448722 267.86081028 299.13441372 C267.87975765 302.60590632 267.86852207 306.07608282 267.85047626 309.54755116 C267.86381504 310.58083042 267.87715382 311.61410969 267.8908968 312.67870045 C267.86090864 315.26176349 267.79757617 317.61258099 267.23865986 320.13422108 C264.3396138 322.80898407 263.03607872 323.13422108 259.11365986 323.13422108 C256.23865986 322.13422108 256.23865986 322.13422108 253.23865986 317.13422108 C252.90865986 312.18422108 252.57865986 307.23422108 252.23865986 302.13422108 C172.70865986 302.13422108 93.17865986 302.13422108 11.23865986 302.13422108 C11.23865986 320.28422108 11.23865986 338.43422108 11.23865986 357.13422108 C90.76865986 357.13422108 170.29865986 357.13422108 252.23865986 357.13422108 C252.89865986 353.50422108 253.55865986 349.87422108 254.23865986 346.13422108 C257.93352089 343.67098039 259.87159078 343.74430419 264.23865986 344.13422108 C265.93336201 345.14125538 265.93336201 345.14125538 267.23865986 347.13422108 C267.53294979 349.94059253 267.64526782 352.52702994 267.62342548 355.33417225 C267.63148464 356.58839481 267.63148464 356.58839481 267.63970661 357.86795521 C267.64949433 359.68492477 267.65242576 361.50194112 267.64935017 363.31893444 C267.64487594 366.19902177 267.65886334 369.07849332 267.67774677 371.95851612 C267.71457167 378.07957425 267.72823506 384.2005685 267.73865986 390.32172108 C267.75075035 397.39868617 267.77241167 404.47535274 267.81866169 411.5521841 C267.83219217 414.38166749 267.82806694 417.21076987 267.82325459 420.04027271 C267.83260186 421.78928573 267.84277235 423.53829461 267.85389423 425.28729725 C267.84774601 426.06733616 267.84159779 426.84737507 267.83526325 427.65105152 C267.89304499 432.85460045 268.45990053 437.62974625 271.23865986 442.13422108 C277.16918485 447.19420484 283.44421435 446.70294635 290.96351337 446.6517992 C292.23261555 446.65880848 293.50171772 446.66581776 294.80927753 446.67303944 C298.27418843 446.69120073 301.73862038 446.68423604 305.20353913 446.67152309 C308.83756805 446.66136 312.47155735 446.67079772 316.10558796 446.67706776 C322.20592798 446.68433366 328.30607394 446.67478343 334.40638447 446.65570545 C341.45079891 446.63392878 348.49475037 446.64099777 355.53915364 446.66301107 C361.59797733 446.68118374 367.65666196 446.68371464 373.71550411 446.6732564 C377.3296034 446.6670329 380.94348529 446.66615426 384.55757046 446.67940235 C388.58639135 446.69314078 392.61441824 446.67408102 396.64320087 446.6517992 C397.83557865 446.65989613 399.02795643 446.66799305 400.25646687 446.67633533 C408.49706521 446.60328077 408.49706521 446.60328077 415.23865986 442.13422108 C418.54359358 436.94020475 418.66502538 432.63656532 418.61961079 426.68341541 C418.62429076 425.73922166 418.62897073 424.79502791 418.63379252 423.82222223 C418.64574637 420.66240656 418.63628359 417.50302426 418.62684345 414.34320545 C418.63090897 412.07621985 418.63625074 409.80923622 418.64277363 407.54225636 C418.6564553 401.38739702 418.65114497 395.23268848 418.64163637 389.0778265 C418.63404424 382.63840928 418.64108415 376.19900501 418.64579487 369.75958729 C418.65160343 358.25267757 418.64227695 346.74584498 418.62701686 335.23894733 C418.61361393 324.80963609 418.61594211 314.38042504 418.62977314 303.95111561 C418.64583434 291.83450264 418.6518002 279.71796829 418.64293635 267.60134268 C418.63825782 261.18935999 418.63764 254.77744629 418.64754581 248.36546803 C418.65620775 242.3375222 418.65020749 236.30976568 418.63286304 230.28184032 C418.6288941 228.06870494 418.63003919 225.85555365 418.63665104 223.64242458 C418.64484028 220.62307641 418.63457624 217.60433611 418.61961079 214.58502674 C418.62630295 213.70778745 418.63299512 212.83054816 418.63989007 211.92672586 C418.59165798 206.91494482 418.00074624 203.4857677 415.23865986 199.13422108 C411.40254492 195.65774191 408.05987366 195.00993465 402.98969746 194.98705006 C401.90184956 194.97989475 400.81400166 194.97273945 399.69318867 194.96536732 C397.90246937 194.96133396 397.90246937 194.96133396 396.07557392 194.95721912 C394.81841572 194.95064793 393.56125751 194.94407673 392.26600361 194.9373064 C388.09544363 194.91628439 383.92488337 194.90590526 379.75428486 194.89593983 C378.31716868 194.89189147 376.88005269 194.88777453 375.4429369 194.88358974 C368.69024803 194.86454156 361.93757007 194.85031018 355.18485951 194.84197778 C347.39686152 194.83220859 339.60914798 194.80589613 331.8212502 194.76547688 C325.79734854 194.7352886 319.7735283 194.72050631 313.74955249 194.71719676 C310.15375469 194.7148492 306.55826091 194.70592772 302.96254444 194.68073559 C298.94795634 194.653063 294.93400141 194.65729422 290.91932392 194.66425037 C289.14075001 194.64503529 289.14075001 194.64503529 287.32624531 194.62543201 C280.82058112 194.66653203 276.29157017 194.82194654 271.23865986 199.13422108 Z M434.23865986 373.13422108 C434.23865986 381.05422108 434.23865986 388.97422108 434.23865986 397.13422108 C450.71064682 398.5100479 450.71064682 398.5100479 465.23865986 392.13422108 C469.44889471 387.64446856 472.14635811 383.81097181 472.36365986 377.50922108 C472.6279564 374.29670059 472.6279564 374.29670059 471.23865986 373.13422108 C468.49971901 373.04563462 465.78612716 373.01898629 463.04725361 373.03656483 C462.22741489 373.03797977 461.40757618 373.03939472 460.56289387 373.04085255 C457.93394604 373.04646819 455.30508212 373.05902328 452.67615986 373.07172108 C450.89816629 373.07673406 449.1201714 373.08129732 447.34217548 373.08539295 C442.97427828 373.09559355 438.60656345 373.11516575 434.23865986 373.13422108 Z "
          fill="#001271" transform="translate(23.761340141296387,24.865778923034668)"/>
    <path d="M0 0 C14.54774079 12.77041499 26.18632848 29.49851695 27.5793457 49.43115234 C28.11308676 72.75840073 24.5046143 91.98546986 8.40234375 109.8984375 C7.88414062 110.50945312 7.3659375 111.12046875 6.83203125 111.75 C-5.48355455 125.30333312 -24.93772679 133.10595051 -42.890625 134.21875 C-64.57172595 135.03610247 -83.00651978 128.16412258 -99.12109375 113.62109375 C-112.4435869 100.95872413 -121.47528383 83.43458809 -122.59765625 64.8984375 C-122.65050781 64.04121094 -122.70335938 63.18398437 -122.7578125 62.30078125 C-123.16437162 49.16715389 -120.43743066 36.64233644 -114.59765625 24.8984375 C-114.14003906 23.93679687 -113.68242188 22.97515625 -113.2109375 21.984375 C-104.15325605 4.69036356 -88.17385547 -7.16336967 -69.8515625 -13.13671875 C-68.77777344 -13.45511719 -67.70398438 -13.77351563 -66.59765625 -14.1015625 C-65.78167969 -14.34777344 -64.96570313 -14.59398438 -64.125 -14.84765625 C-42.3148456 -20.27213719 -17.29260949 -13.99011113 0 0 Z M-90.59765625 18.8984375 C-91.15839844 19.43855469 -91.71914062 19.97867188 -92.296875 20.53515625 C-101.91144391 30.55348659 -106.41747047 45.30748966 -106.97265625 58.8984375 C-106.28268814 75.78885679 -99.66268101 90.18123328 -87.59765625 101.8984375 C-87.05753906 102.45917969 -86.51742187 103.01992187 -85.9609375 103.59765625 C-75.84764149 113.3033635 -60.96771432 117.88080043 -47.28515625 118.3359375 C-30.63792222 117.92741642 -16.8529711 111.64776215 -4.84765625 100.27734375 C7.74025422 86.96825091 12.07219851 71.75344503 11.71484375 53.890625 C11.42322498 47.44342003 9.96706276 41.81578292 7.40234375 35.8984375 C7.00144531 34.9703125 6.60054688 34.0421875 6.1875 33.0859375 C-0.90726518 18.60850363 -13.15471497 8.16145362 -28.22265625 2.67578125 C-29.39828125 2.29099609 -29.39828125 2.29099609 -30.59765625 1.8984375 C-31.27828125 1.67285156 -31.95890625 1.44726562 -32.66015625 1.21484375 C-53.91745165 -4.62286048 -75.67493579 3.53274204 -90.59765625 18.8984375 Z "
          fill="#001271" transform="translate(234.59765625,115.1015625)"/>
    <path d="M0 0 C11.71511252 10.14722528 19.68783431 22.76319382 21.23925781 38.41357422 C22.40454292 55.62919696 19.41949615 69.94466093 9 84 C8.278125 85.03125 7.55625 86.0625 6.8125 87.125 C-4.19423278 99.57523872 -19.62788571 105.64233054 -35.80859375 107.28515625 C-51.97085289 107.83750686 -67.45210275 102.5329612 -79.4375 91.6875 C-91.48146317 80.21360731 -98.70164427 65.75332938 -99.33422852 49.07348633 C-99.65394776 31.83353534 -94.2931648 16.8857433 -82.3515625 4.28515625 C-59.53216013 -17.88984439 -24.93572643 -20.42734709 0 0 Z M-72.21875 16.80859375 C-80.92834866 27.5236921 -84.42000221 39.23566038 -83 53 C-80.45963179 66.01938706 -73.79982774 76.27846711 -63 84 C-52.14579672 90.16430909 -40.79035384 92.83936677 -28.5625 89.8125 C-16.77098654 86.23234689 -7.07150941 80.41887726 -0.8515625 69.37890625 C4.98607052 58.24771626 6.93372898 47.18245019 4.31640625 34.75390625 C0.11333234 22.45860706 -8.32790381 11.87927808 -20 6 C-38.34542505 -1.48792859 -58.49986735 1.99332499 -72.21875 16.80859375 Z "
          fill="#001271" transform="translate(406,299)"/>
    <path d="M0 0 C2.555213 3.8328195 2.60404427 5.44178903 2 10 C0.2973186 13.05373859 -1.88053299 15.64155476 -4.125 18.3125 C-5.41195714 19.90194 -6.69840055 21.49179608 -7.984375 23.08203125 C-8.64888672 23.89236816 -9.31339844 24.70270508 -9.99804688 25.53759766 C-13.19504472 29.469905 -16.27883145 33.48821815 -19.375 37.5 C-20.53691838 38.99154175 -21.69964889 40.48245129 -22.86328125 41.97265625 C-24.7481816 44.38787876 -26.62242654 46.81016565 -28.48046875 49.24609375 C-29.16753906 50.13425781 -29.85460937 51.02242187 -30.5625 51.9375 C-31.12066406 52.66839844 -31.67882812 53.39929688 -32.25390625 54.15234375 C-34.4182004 56.44252526 -36.06750789 57.79250325 -39 59 C-45.24102142 58.21987232 -48.12866759 55.42920669 -52 50.875 C-52.51691406 50.29041016 -53.03382813 49.70582031 -53.56640625 49.10351562 C-55.05704644 47.41300263 -56.5289469 45.70754677 -58 44 C-58.721875 43.18789062 -59.44375 42.37578125 -60.1875 41.5390625 C-61.33712571 40.24573357 -62.47536295 38.94211683 -63.59765625 37.625 C-64.82496956 36.20282079 -66.12609485 34.84503093 -67.4375 33.5 C-69.79893062 29.72171101 -69.56153595 27.42209561 -69 23 C-67.4375 20.5 -67.4375 20.5 -65 19 C-61.09120921 18.43144861 -58.91189291 18.45286426 -55.5 20.5 C-50.30982004 25.69017996 -45.68991015 31.36247102 -41 37 C-35.8560767 30.9257927 -30.78480652 24.81401567 -25.9375 18.5 C-25.52685303 17.96632812 -25.11620605 17.43265625 -24.69311523 16.8828125 C-22.5997968 14.14612528 -20.54918458 11.38606559 -18.546875 8.58203125 C-17.95144897 7.75832031 -17.95144897 7.75832031 -17.34399414 6.91796875 C-16.25515372 5.40641827 -15.17984512 3.88514647 -14.10546875 2.36328125 C-9.66082382 -2.62560591 -6.0010431 -2.3777718 0 0 Z "
          fill="#001271" transform="translate(223,147)"/>
    <path d="M0 0 C2.375 1.0625 2.375 1.0625 4 3 C5 6.3125 5 6.3125 5 10 C1.93442163 15.2152679 -1.95104677 19.87838198 -5.6875 24.625 C-10.80999567 31.12715906 -10.80999567 31.12715906 -15.7421875 37.7734375 C-16.89074219 39.37058594 -16.89074219 39.37058594 -18.0625 41 C-18.71347656 41.928125 -19.36445313 42.85625 -20.03515625 43.8125 C-22.24131044 46.26865576 -23.84598626 47.11053745 -27 48 C-32.23069505 47.73846525 -35.14247729 44.97361788 -38.625 41.2734375 C-40.46062369 39.2165556 -42.23220106 37.11537885 -44 35 C-44.66128906 34.24976563 -45.32257813 33.49953125 -46.00390625 32.7265625 C-49.03215402 29.14160655 -50.84229063 26.87457014 -51.6875 22.1875 C-51 19 -51 19 -49.5 16.5625 C-46.67721214 14.79825759 -44.4286795 14.25471697 -41.08984375 14.41015625 C-36.99576207 15.56568211 -34.67327507 18.86844921 -32 22 C-30.67608917 23.34268971 -29.34497749 24.67841342 -28 26 C-27.21496094 24.94941406 -26.42992187 23.89882813 -25.62109375 22.81640625 C-16.14923251 10.15257903 -16.14923251 10.15257903 -11.875 4.5625 C-11.35679687 3.88316406 -10.83859375 3.20382812 -10.3046875 2.50390625 C-7.41917506 -0.82220839 -4.15054956 -0.2862448 0 0 Z "
          fill="#001271" transform="translate(392,323)"/>
    <path d="M0 0 C0.69134033 -0.0038269 1.38268066 -0.00765381 2.0949707 -0.01159668 C3.55063338 -0.01430787 5.00634544 -0.00700211 6.46191406 0.00976562 C8.68145045 0.0311916 10.89775096 0.00994228 13.1171875 -0.015625 C14.53646543 -0.01298158 15.95574135 -0.00785629 17.375 0 C19.29892578 0.00676758 19.29892578 0.00676758 21.26171875 0.01367188 C25.23215233 0.61353784 26.88164008 1.71237589 29.6875 4.53125 C31.15046477 8.00579134 30.80025119 9.25205658 29.375 12.78125 C27.6875 15.53125 27.6875 15.53125 25.6875 16.53125 C23.1809729 16.66632003 20.70346679 16.74382842 18.1953125 16.76953125 C17.45296356 16.777603 16.71061462 16.78567474 15.94577026 16.79399109 C14.37386407 16.80782717 12.80192788 16.81855146 11.22998047 16.82641602 C8.8285217 16.84363512 6.42843782 16.8875228 4.02734375 16.93164062 C2.50001012 16.94176729 0.97266479 16.95028348 -0.5546875 16.95703125 C-1.27147675 16.97453934 -1.98826599 16.99204742 -2.72677612 17.01008606 C-6.19355069 16.995037 -7.98643299 16.78438824 -10.76196289 14.62963867 C-12.43183718 12.36974739 -12.88042457 11.30863225 -12.875 8.53125 C-12.89691406 7.87125 -12.91882813 7.21125 -12.94140625 6.53125 C-11.05208565 0.5229758 -5.47451288 0.01925708 0 0 Z "
          fill="#001271" transform="translate(358.3125,229.46875)"/>
</svg>
