<svg width="23" height="22" viewBox="0 0 23 22" fill="none" xmlns="http://www.w3.org/2000/svg">
<path d="M9.5301 15.1221C9.26849 14.4771 8.79077 13.9432 8.17877 13.6118C7.56677 13.2803 6.85857 13.172 6.17547 13.3053C5.49237 13.4386 4.87687 13.8053 4.4344 14.3425C3.99193 14.8797 3.75002 15.5541 3.7501 16.2501C3.7501 16.5582 3.68682 16.863 3.56418 17.1457C3.44154 17.4283 3.26215 17.6828 3.03714 17.8933C2.81213 18.1037 2.54629 18.2658 2.25609 18.3693C1.96589 18.4728 1.65752 18.5156 1.3501 18.4951C1.84454 19.3541 2.60873 20.0257 3.52402 20.4059C4.43931 20.7861 5.4545 20.8534 6.412 20.5975C7.36949 20.3416 8.21572 19.7768 8.81931 18.9907C9.42291 18.2046 9.7501 17.2412 9.7501 16.2501C9.7501 15.8511 9.6721 15.4701 9.5301 15.1221ZM9.5301 15.1221C10.7191 14.717 11.8563 14.1732 12.9181 13.5021M7.8751 13.4771C8.28031 12.2856 8.82474 11.146 9.4971 10.0821M12.9171 13.5021C14.8134 12.304 16.4366 10.7203 17.6811 8.85408L21.5571 3.04008C21.7056 2.81864 21.7726 2.55252 21.7467 2.28717C21.7208 2.02182 21.6035 1.7737 21.415 1.58517C21.2265 1.39665 20.9784 1.27942 20.713 1.2535C20.4477 1.22759 20.1815 1.29459 19.9601 1.44308L14.1461 5.32008C12.2796 6.56422 10.6957 8.18701 9.4971 10.0831C11.019 10.7636 12.2366 11.9812 12.9171 13.5031" stroke="#001271" stroke-linecap="round" stroke-linejoin="round"/>
</svg>
