<svg width="14" height="16" viewBox="0 0 14 16" fill="none" xmlns="http://www.w3.org/2000/svg">
<path d="M3.88455 10.4983C3.85357 10.4534 3.96966 10.2723 4.2328 9.95507C4.49595 9.63778 4.79711 9.29638 5.13627 8.93088C5.52223 8.50852 5.96557 8.03207 6.4663 7.50151C6.66393 7.3498 6.8533 7.28169 7.0344 7.29718C7.21548 7.31268 7.38028 7.41391 7.5288 7.60086C7.6602 7.76325 7.7024 7.96277 7.6554 8.19943C7.60839 8.43607 7.48659 8.6046 7.29 8.70503C6.66782 9.06264 6.10959 9.38048 5.61532 9.65855C5.1989 9.90452 4.81408 10.1172 4.46086 10.2966C4.10764 10.4759 3.91553 10.5432 3.88455 10.4983ZM6.16019 15.2259C6.09075 15.2259 6.02916 15.2141 5.97542 15.1906C5.9217 15.1671 5.88566 15.126 5.8673 15.0672C5.79653 14.9689 5.73952 14.8573 5.69625 14.7324C5.65299 14.6075 5.6383 14.4895 5.65219 14.3785C5.65219 14.2853 5.65914 14.1941 5.67302 14.1049C5.68691 14.0157 5.7024 13.9262 5.71948 13.8364C5.41697 13.778 5.16426 13.627 4.96136 13.3835C4.75844 13.1401 4.65698 12.8557 4.65698 12.5304C4.65698 12.4428 4.66553 12.3252 4.68263 12.1778C3.83166 11.8722 3.15417 11.3984 2.65017 10.7563C2.14617 10.1142 1.82846 9.29905 1.69705 8.3108C1.6276 8.38024 1.55854 8.42699 1.48986 8.45103C1.42118 8.47507 1.348 8.48709 1.27032 8.48709C0.94583 8.48709 0.699989 8.29251 0.532795 7.90334C0.365587 7.51416 0.281982 7.04596 0.281982 6.49874C0.281982 5.79972 0.490052 5.12009 0.906191 4.45984C1.32232 3.79958 1.78599 3.46945 2.29721 3.46945C2.39817 3.46945 2.47456 3.51779 2.52638 3.61449C2.5782 3.71117 2.61105 3.84765 2.62494 4.02395C3.07793 3.41924 3.62226 2.92511 4.25794 2.54157C4.89364 2.15802 5.60101 1.91993 6.38007 1.8273C6.43755 1.53318 6.58653 1.28409 6.827 1.08003C7.06748 0.87596 7.34627 0.773926 7.6634 0.773926V1.45824C7.70827 1.39627 7.76704 1.3375 7.83969 1.28195C7.89845 1.23493 7.96843 1.1938 8.04963 1.15855C8.13082 1.1233 8.23018 1.10568 8.34769 1.10568C8.45133 1.10568 8.54722 1.1233 8.63536 1.15855C8.7235 1.1938 8.79 1.23493 8.83488 1.28195C8.90753 1.3375 8.9663 1.39627 9.01117 1.45824C8.84877 1.45824 8.71228 1.50311 8.60171 1.59284C8.49113 1.68259 8.42034 1.80706 8.38936 1.96624C8.98101 2.13028 9.5327 2.38936 10.0444 2.74349C10.5561 3.09761 10.9997 3.52443 11.3749 4.02395C11.3749 3.84765 11.4009 3.71117 11.4527 3.61449C11.5045 3.51779 11.5878 3.46945 11.7027 3.46945C12.2 3.46945 12.6567 3.79904 13.0729 4.45824C13.489 5.11742 13.704 5.7969 13.7179 6.4967C13.7179 7.04478 13.6274 7.517 13.4463 7.91336C13.2652 8.30974 13.017 8.50793 12.7019 8.50793C12.6372 8.50793 12.5685 8.49323 12.4955 8.46384C12.4226 8.43447 12.3514 8.3904 12.282 8.33163C12.1178 9.42262 11.7402 10.3071 11.1494 10.9849C10.5587 11.6628 9.7492 12.1192 8.72109 12.3541C8.74227 12.5196 8.81075 12.6456 8.92655 12.7322C9.04235 12.8188 9.18207 12.8621 9.34571 12.8621H9.72817C9.7961 12.8621 9.86318 12.8889 9.9294 12.9426C9.99561 12.9962 10.0406 13.0512 10.0643 13.1073C10.0958 13.2247 10.1682 13.3583 10.2817 13.5079C10.3951 13.6575 10.547 13.8242 10.7371 14.0079C10.813 14.0838 10.8536 14.1735 10.8589 14.2772C10.8643 14.3808 10.8203 14.462 10.7269 14.5207C10.5568 14.6425 10.3691 14.7318 10.1638 14.7884C9.95839 14.845 9.74353 14.8802 9.51917 14.8941C9.44973 14.8941 9.38814 14.8824 9.3344 14.8589C9.28068 14.8354 9.24464 14.7943 9.22627 14.7355C9.15551 14.6372 9.10197 14.5256 9.06565 14.4007C9.02933 14.2758 9.01117 14.1578 9.01117 14.0468C9.01117 13.9536 9.01811 13.8624 9.032 13.7732C9.04589 13.684 9.06138 13.5945 9.07846 13.5047C8.81243 13.4705 8.58086 13.3576 8.38375 13.1658C8.18664 12.974 8.07099 12.7398 8.03679 12.4631C7.86052 12.4855 7.69118 12.5023 7.5288 12.5135C7.36639 12.5248 7.19185 12.5304 7.00517 12.5304C6.74007 12.5304 6.47341 12.5157 6.20517 12.4863C5.93693 12.4569 5.65592 12.4128 5.36213 12.3541C5.33435 12.4235 5.32046 12.4823 5.32046 12.5304C5.32046 12.7301 5.38349 12.8941 5.50955 13.0223C5.63561 13.1506 5.79242 13.2147 5.97996 13.2147H6.36788C6.43693 13.2147 6.50455 13.2415 6.57073 13.2951C6.63691 13.3488 6.68185 13.4037 6.70554 13.4599C6.73702 13.5773 6.80597 13.7073 6.9124 13.85C7.01884 13.9927 7.17409 14.1559 7.37815 14.3397C7.454 14.4155 7.49459 14.5053 7.49994 14.6089C7.50529 14.7125 7.46127 14.7937 7.3679 14.8525C7.19784 14.9743 7.01014 15.0635 6.80477 15.1201C6.59941 15.1767 6.38455 15.212 6.16019 15.2259ZM11.5304 8.64253C11.5892 8.36582 11.6298 8.10861 11.6522 7.8709C11.6746 7.63318 11.6928 7.3952 11.7067 7.15695C11.7067 5.86314 11.2454 4.75577 10.323 3.83484C9.40055 2.9139 8.2921 2.45343 6.99767 2.45343C5.68935 2.45343 4.57819 2.91443 3.66419 3.83645C2.7502 4.75845 2.29321 5.86635 2.29321 7.16016C2.29321 7.3952 2.3079 7.63284 2.33727 7.87309C2.36665 8.11336 2.41072 8.36984 2.46948 8.64253C2.53893 8.40749 2.61585 8.18554 2.70025 7.97668C2.78466 7.7678 2.89257 7.56134 3.02398 7.35728C2.93744 7.17031 2.8752 6.99136 2.83727 6.82043C2.79934 6.64948 2.78732 6.48473 2.80121 6.32618C2.80121 5.62584 3.04615 5.02993 3.53602 4.53843C4.02589 4.04693 4.6198 3.80118 5.31777 3.80118C5.61657 3.80118 5.91271 3.85912 6.20621 3.97501C6.49973 4.09088 6.7643 4.24715 6.99994 4.4438C7.22057 4.24715 7.47691 4.09088 7.76898 3.97501C8.06105 3.85912 8.36323 3.80118 8.6755 3.80118C9.37257 3.80118 9.96389 4.04693 10.4495 4.53843C10.935 5.02993 11.1848 5.62584 11.1987 6.32618C11.1987 6.5264 11.177 6.70504 11.1338 6.86209C11.0905 7.01913 11.0379 7.1842 10.9759 7.35728C11.1073 7.56134 11.2152 7.7678 11.2996 7.97668C11.384 8.18554 11.461 8.40749 11.5304 8.64253ZM6.99223 11.8669C7.95784 11.8669 8.77416 11.7187 9.44119 11.4222C10.1082 11.1257 10.6294 10.6671 11.0047 10.0464C11.0047 10.025 11.0076 9.9967 11.0135 9.96145C11.0194 9.92618 11.0224 9.89093 11.0224 9.85568C11.0224 9.517 10.9853 9.1897 10.911 8.8738C10.8368 8.55788 10.7254 8.25964 10.5769 7.97907C10.314 8.26967 10.0183 8.48574 9.68965 8.6273C9.36098 8.76887 9.02424 8.83965 8.67942 8.83965C8.54089 8.83965 8.43014 8.83885 8.34717 8.83724C8.26418 8.83564 8.19866 8.82095 8.15059 8.79318C8.20935 8.74073 8.25342 8.66459 8.2828 8.56474C8.31217 8.46489 8.32686 8.36511 8.32686 8.26541V8.1137C8.3963 8.12758 8.45507 8.138 8.50315 8.14495C8.55122 8.15189 8.60998 8.15536 8.67942 8.15536C9.19225 8.15536 9.62629 7.981 9.98153 7.63226C10.3368 7.28354 10.5144 6.8455 10.5144 6.31815C10.5144 5.80471 10.3368 5.36743 9.98153 5.0063C9.62629 4.64519 9.19225 4.46463 8.67942 4.46463C8.4337 4.46463 8.20882 4.50496 8.00477 4.58561C7.80073 4.66625 7.61964 4.78832 7.46148 4.95182L6.99994 5.35086L6.54069 4.95268C6.36289 4.78972 6.17649 4.66764 5.9815 4.58645C5.78653 4.50524 5.56618 4.46463 5.32046 4.46463C4.79374 4.46463 4.35276 4.64572 3.99752 5.00791C3.64229 5.37009 3.46467 5.80759 3.46467 6.32043C3.46467 6.75204 3.60196 7.14333 3.87655 7.4943C4.15111 7.84526 4.51489 8.05867 4.96788 8.13453L4.45988 8.6842C4.23873 8.60835 4.04348 8.51246 3.87413 8.39653C3.7048 8.28061 3.55442 8.14146 3.423 7.97907C3.26061 8.25943 3.1423 8.55745 3.06805 8.87311C2.9938 9.18877 2.96361 9.5162 2.9775 9.85541V10.0111C3.34716 10.6404 3.87023 11.107 4.54671 11.411C5.22318 11.7149 6.03836 11.8669 6.99223 11.8669ZM8.67942 7.49188C8.37174 7.49188 8.12548 7.37165 7.94065 7.13118C7.75582 6.8907 7.6634 6.6212 7.6634 6.32268C7.6634 6.02416 7.75582 5.75391 7.94065 5.51193C8.12548 5.26994 8.37174 5.14895 8.67942 5.14895C8.98711 5.14895 9.22991 5.26918 9.4078 5.50965C9.58568 5.75013 9.68157 6.01963 9.69546 6.31815C9.69546 6.61667 9.60305 6.88692 9.41821 7.12891C9.23338 7.37089 8.98711 7.49188 8.67942 7.49188ZM8.91646 5.98868C8.98279 5.98868 9.04455 5.96201 9.10171 5.90868C9.15886 5.85533 9.18744 5.79309 9.18744 5.72197C9.18744 5.65084 9.16166 5.59285 9.11009 5.54799C9.05852 5.50311 8.99834 5.48068 8.92957 5.48068C8.86323 5.48068 8.80496 5.50299 8.75475 5.54761C8.70453 5.59224 8.67942 5.64893 8.67942 5.7177C8.67942 5.78404 8.70174 5.84579 8.74638 5.90295C8.791 5.9601 8.8477 5.98868 8.91646 5.98868ZM5.32046 7.49188C5.01277 7.49188 4.7665 7.37165 4.58167 7.13118C4.39684 6.8907 4.30442 6.6212 4.30442 6.32268C4.30442 6.02416 4.39684 5.75391 4.58167 5.51193C4.7665 5.26994 5.01277 5.14895 5.32046 5.14895C5.62814 5.14895 5.8744 5.26918 6.05923 5.50965C6.24407 5.75013 6.33648 6.01963 6.33648 6.31815C6.33648 6.61667 6.24407 6.88692 6.05923 7.12891C5.8744 7.37089 5.62814 7.49188 5.32046 7.49188ZM5.55748 5.98868C5.62382 5.98868 5.68557 5.96201 5.74273 5.90868C5.79989 5.85533 5.82846 5.79309 5.82846 5.72197C5.82846 5.65084 5.80268 5.59285 5.75111 5.54799C5.69954 5.50311 5.63937 5.48068 5.57061 5.48068C5.50426 5.48068 5.44598 5.50299 5.39577 5.54761C5.34557 5.59224 5.32046 5.64893 5.32046 5.7177C5.32046 5.78404 5.34277 5.84579 5.3874 5.90295C5.43202 5.9601 5.48872 5.98868 5.55748 5.98868Z" fill="#001271"/>
</svg>
