<svg width="13" height="12" viewBox="0 0 13 12" fill="none" xmlns="http://www.w3.org/2000/svg">
<path d="M1.41339 11.1666C1.08539 11.1666 0.806803 11.052 0.577637 10.8228C0.34847 10.5937 0.233887 10.3151 0.233887 9.98711V2.01273C0.233887 1.67502 0.34847 1.39402 0.577637 1.16971C0.806803 0.945405 1.08539 0.833252 1.41339 0.833252H9.38774C9.72546 0.833252 10.0065 0.945405 10.2308 1.16971C10.4551 1.39402 10.5672 1.67502 10.5672 2.01273V5.64094L12.766 3.44221V8.55763L10.5672 6.3589V9.98711C10.5672 10.3151 10.4551 10.5937 10.2308 10.8228C10.0065 11.052 9.72546 11.1666 9.38774 11.1666H1.41339ZM1.41339 10.4999H9.38774C9.53732 10.4999 9.66019 10.4518 9.75635 10.3557C9.8525 10.2595 9.90058 10.1367 9.90058 9.98711V2.01273C9.90058 1.86316 9.8525 1.7403 9.75635 1.64415C9.66019 1.548 9.53732 1.49992 9.38774 1.49992H1.41339C1.26382 1.49992 1.14096 1.548 1.0448 1.64415C0.948651 1.7403 0.900574 1.86316 0.900574 2.01273V9.98711C0.900574 10.1367 0.948651 10.2595 1.0448 10.3557C1.14096 10.4518 1.26382 10.4999 1.41339 10.4999Z" fill="#001271"/>
</svg>
