<svg width="16" height="20" viewBox="0 0 16 20" fill="none" xmlns="http://www.w3.org/2000/svg">
<path d="M14.1772 16.9583C14.8664 15.951 15.2416 14.9679 15.3845 14.548C15.3213 14.5166 15.2463 14.4773 15.1626 14.4294C14.9124 14.2862 14.5816 14.0654 14.2504 13.7502C13.5851 13.1172 12.9195 12.1034 12.9054 10.5928C12.8868 8.51833 14.2812 7.32768 14.8404 6.9315C13.7973 5.59084 12.292 5.39561 11.7315 5.37229L11.7241 5.37198L11.7167 5.37123C11.042 5.30286 10.3704 5.50079 9.74944 5.73371C9.61984 5.7823 9.48614 5.83498 9.35534 5.88653C9.18824 5.95233 9.02594 6.01629 8.88274 6.06762C8.62224 6.16098 8.35924 6.23857 8.12574 6.23857C7.89724 6.23857 7.65384 6.17482 7.41514 6.09375C7.23894 6.0339 7.04954 5.95879 6.85834 5.88294C6.79024 5.85594 6.72194 5.82885 6.65394 5.80232C6.12094 5.59447 5.56888 5.40705 5.01284 5.41766L5.0117 5.41768C3.50151 5.43962 2.10184 6.29597 1.31594 7.66009C0.523368 9.03633 0.412818 10.7633 0.711578 12.455C1.01 14.1448 1.71175 15.7679 2.50221 16.9107C2.90054 17.486 3.32168 18.074 3.79062 18.5135C4.25907 18.9526 4.74387 19.2138 5.26938 19.194C5.7782 19.174 6.13474 19.0224 6.54604 18.8475C6.57574 18.8348 6.60574 18.8221 6.63614 18.8092C7.09084 18.617 7.60174 18.4204 8.37404 18.4204C9.14994 18.4204 9.65184 18.631 10.1 18.8247L10.1222 18.8343C10.5534 19.0208 10.9238 19.1809 11.4871 19.1706C12.0492 19.1602 12.519 18.907 12.9543 18.5C13.3947 18.0883 13.7811 17.5372 14.1772 16.9583ZM14.1772 16.9583L14.3794 17.0967M10.5855 3.41167C10.0066 4.11283 9.09634 4.64975 8.20504 4.66538C8.16184 3.73849 8.62524 2.77667 9.16724 2.15001L9.16814 2.14889C9.75274 1.46491 10.705 0.94204 11.5293 0.82666C11.5576 1.77112 11.1625 2.71325 10.5855 3.41167Z" stroke="#001271"/>
</svg>
