<svg width="120" height="27" viewBox="0 0 120 27" fill="none" xmlns="http://www.w3.org/2000/svg">
<g clip-path="url(#clip0_62_17)">
<path d="M116.81 20.6624C118.027 20.6624 119.012 19.678 119.012 18.4612C119.012 17.2307 118.027 16.26 116.81 16.26C115.58 16.26 114.609 17.2307 114.609 18.4612C114.609 19.678 115.58 20.6624 116.81 20.6624Z" fill="#001271"/>
<path d="M1.43111 21V2.09091H14.3388V5.80256H6.00142V9.6804H13.517V13.4013H6.00142V21H1.43111ZM20.4094 21.2401C19.5046 21.2401 18.7013 21.0893 17.9996 20.7876C17.3041 20.4799 16.7532 20.0182 16.3469 19.4027C15.9469 18.781 15.7468 18.0024 15.7468 17.0668C15.7468 16.2789 15.8853 15.6141 16.1623 15.0724C16.4393 14.5308 16.8209 14.0907 17.3072 13.7521C17.7934 13.4136 18.3536 13.1581 18.9876 12.9858C19.6216 12.8073 20.2987 12.6873 21.0188 12.6257C21.8252 12.5518 22.4746 12.4749 22.967 12.3949C23.4594 12.3087 23.8164 12.1887 24.038 12.0348C24.2657 11.8748 24.3796 11.6501 24.3796 11.3608V11.3146C24.3796 10.8407 24.2165 10.4744 23.8903 10.2159C23.564 9.95739 23.1239 9.82812 22.57 9.82812C21.9729 9.82812 21.4928 9.95739 21.1296 10.2159C20.7665 10.4744 20.5356 10.8314 20.4371 11.2869L16.2731 11.1392C16.3962 10.2775 16.7132 9.50805 17.2241 8.83097C17.7411 8.14773 18.449 7.61222 19.3477 7.22443C20.2525 6.83049 21.3389 6.63352 22.6069 6.63352C23.5117 6.63352 24.3458 6.74124 25.109 6.95668C25.8723 7.16596 26.5371 7.47372 27.1033 7.87997C27.6696 8.28007 28.1067 8.77249 28.4144 9.35724C28.7283 9.942 28.8853 10.6098 28.8853 11.3608V21H24.6381V19.0241H24.5273C24.275 19.5043 23.9518 19.9105 23.5579 20.2429C23.1701 20.5753 22.7115 20.8246 22.1822 20.9908C21.659 21.157 21.0681 21.2401 20.4094 21.2401ZM21.8036 18.2855C22.2899 18.2855 22.7269 18.187 23.1147 17.9901C23.5086 17.7931 23.8226 17.5223 24.0565 17.1776C24.2904 16.8267 24.4073 16.4205 24.4073 15.9588V14.6108C24.2781 14.6785 24.1211 14.7401 23.9364 14.7955C23.7579 14.8509 23.561 14.9032 23.3455 14.9524C23.1301 15.0017 22.9085 15.0447 22.6808 15.0817C22.453 15.1186 22.2345 15.1525 22.0252 15.1832C21.6005 15.2509 21.2373 15.3556 20.9357 15.4972C20.6403 15.6387 20.4125 15.8234 20.2525 16.0511C20.0986 16.2727 20.0217 16.5374 20.0217 16.8452C20.0217 17.313 20.1879 17.67 20.5202 17.9162C20.8588 18.1624 21.2866 18.2855 21.8036 18.2855ZM31.646 21V6.81818H36.0316V9.40341H36.1793C36.4379 8.4678 36.8595 7.77225 37.4442 7.31676C38.029 6.85511 38.7092 6.62429 39.4847 6.62429C39.694 6.62429 39.9094 6.63968 40.131 6.67045C40.3526 6.69508 40.5588 6.73508 40.7496 6.79048V10.7145C40.5342 10.6406 40.2511 10.5821 39.9002 10.5391C39.5555 10.496 39.2478 10.4744 38.9769 10.4744C38.4414 10.4744 37.9582 10.5945 37.5273 10.8345C37.1026 11.0684 36.7672 11.3977 36.521 11.8224C36.2809 12.241 36.1609 12.7334 36.1609 13.2997V21H31.646Z" fill="#001271"/>
<path d="M54.9707 11.1484L50.8251 11.2592C50.782 10.9638 50.6651 10.7022 50.4743 10.4744C50.2834 10.2405 50.0342 10.0589 49.7264 9.92969C49.4248 9.79427 49.0739 9.72656 48.6738 9.72656C48.1506 9.72656 47.7044 9.8312 47.335 10.0405C46.9719 10.2498 46.7934 10.5329 46.7995 10.8899C46.7934 11.1669 46.9042 11.407 47.1319 11.6101C47.3658 11.8132 47.7813 11.9763 48.3784 12.0994L51.1113 12.6165C52.527 12.8873 53.5796 13.3366 54.269 13.9645C54.9645 14.5923 55.3154 15.4233 55.3216 16.4574C55.3154 17.4299 55.0261 18.2763 54.4537 18.9964C53.8874 19.7166 53.1118 20.2768 52.127 20.6768C51.1421 21.0708 50.0157 21.2678 48.7477 21.2678C46.7226 21.2678 45.1253 20.8523 43.9558 20.0213C42.7924 19.1842 42.1277 18.0639 41.9615 16.6605L46.421 16.5497C46.5195 17.0668 46.7749 17.4607 47.1873 17.7315C47.5997 18.0024 48.126 18.1378 48.7662 18.1378C49.3448 18.1378 49.8156 18.0301 50.1788 17.8146C50.542 17.5992 50.7266 17.313 50.7328 16.956C50.7266 16.6359 50.5851 16.3804 50.3081 16.1896C50.0311 15.9927 49.5971 15.8388 49.0062 15.728L46.5318 15.2571C45.1099 14.9986 44.0512 14.5215 43.3556 13.826C42.6601 13.1243 42.3154 12.2318 42.3216 11.1484C42.3154 10.2005 42.5678 9.3911 43.0787 8.72017C43.5895 8.04309 44.3159 7.52604 45.2576 7.16903C46.1994 6.81203 47.3104 6.63352 48.5907 6.63352C50.5112 6.63352 52.0254 7.0367 53.1333 7.84304C54.2413 8.64323 54.8538 9.74503 54.9707 11.1484ZM66.6942 14.8786V6.81818H71.1999V21H66.8974V18.3594H66.7496C66.4357 19.2273 65.9002 19.9167 65.1431 20.4276C64.3922 20.9323 63.4843 21.1847 62.4194 21.1847C61.453 21.1847 60.6036 20.9631 59.8711 20.5199C59.1386 20.0767 58.5692 19.4581 58.163 18.6641C57.7567 17.8639 57.5505 16.9283 57.5444 15.8572V6.81818H62.0593V14.9709C62.0655 15.7403 62.2686 16.3466 62.6687 16.7898C63.0688 17.233 63.6135 17.4545 64.3029 17.4545C64.7522 17.4545 65.1554 17.3561 65.5124 17.1591C65.8756 16.956 66.1618 16.6636 66.3711 16.282C66.5865 15.8942 66.6942 15.4264 66.6942 14.8786ZM78.5886 2.09091V21H74.0737V2.09091H78.5886ZM85.9773 2.09091V21H81.4624V2.09091H85.9773ZM95.4803 21.2678C93.9969 21.2678 92.7166 20.9754 91.6394 20.3906C90.5684 19.7997 89.7435 18.9595 89.165 17.87C88.5925 16.7744 88.3063 15.4725 88.3063 13.9645C88.3063 12.4995 88.5956 11.2192 89.1742 10.1236C89.7528 9.02178 90.5684 8.16619 91.6209 7.55682C92.6735 6.94129 93.9138 6.63352 95.3418 6.63352C96.3513 6.63352 97.2746 6.79048 98.1117 7.1044C98.9488 7.41832 99.6721 7.88305 100.281 8.49858C100.891 9.11411 101.365 9.87429 101.703 10.7791C102.042 11.6778 102.211 12.7088 102.211 13.8722V14.9986H89.8851V12.3764H98.0101C98.004 11.8963 97.8901 11.4685 97.6685 11.093C97.4469 10.7176 97.1422 10.4252 96.7544 10.2159C96.3728 10.0005 95.9327 9.89276 95.4341 9.89276C94.9294 9.89276 94.477 10.0066 94.0769 10.2344C93.6768 10.456 93.3598 10.7607 93.1259 11.1484C92.892 11.5301 92.7689 11.964 92.7566 12.4503V15.1186C92.7566 15.6972 92.8704 16.205 93.0982 16.642C93.3259 17.0729 93.6491 17.4084 94.0676 17.6484C94.4862 17.8885 94.9848 18.0085 95.5634 18.0085C95.9635 18.0085 96.3266 17.9531 96.6529 17.8423C96.9791 17.7315 97.2592 17.5684 97.4931 17.353C97.727 17.1375 97.9024 16.8729 98.0194 16.5589L102.165 16.679C101.993 17.6084 101.614 18.4179 101.029 19.1072C100.451 19.7905 99.6905 20.3229 98.7488 20.7045C97.807 21.08 96.7175 21.2678 95.4803 21.2678ZM104.517 21V6.81818H108.903V9.40341H109.05C109.309 8.4678 109.731 7.77225 110.315 7.31676C110.9 6.85511 111.58 6.62429 112.356 6.62429C112.565 6.62429 112.781 6.63968 113.002 6.67045C113.224 6.69508 113.43 6.73508 113.621 6.79048V10.7145C113.405 10.6406 113.122 10.5821 112.771 10.5391C112.427 10.496 112.119 10.4744 111.848 10.4744C111.313 10.4744 110.829 10.5945 110.398 10.8345C109.974 11.0684 109.638 11.3977 109.392 11.8224C109.152 12.241 109.032 12.7334 109.032 13.2997V21H104.517Z" fill="black"/>
</g>
<defs>
<clipPath id="clip0_62_17">
<rect width="120" height="27" fill="white"/>
</clipPath>
</defs>
</svg>
